<?xml version="1.0" encoding="utf-8"?>
<!-- Generator: Adobe Illustrator 17.0.0, SVG Export Plug-In . SVG Version: 6.00 Build 0)  -->
<!DOCTYPE svg PUBLIC "-//W3C//DTD SVG 1.1//EN" "http://www.w3.org/Graphics/SVG/1.1/DTD/svg11.dtd">
<svg version="1.1" xmlns="http://www.w3.org/2000/svg" xmlns:xlink="http://www.w3.org/1999/xlink" x="0px" y="0px"
	 width="1134.333px" height="193.101px" viewBox="0 0 1134.333 193.101" enable-background="new 0 0 1134.333 193.101"
	 xml:space="preserve">
<g id="Layer_1" display="none">
	
		<image display="inline" overflow="visible" width="2247" height="190" xlink:href="../../../../Desktop/png.png"  transform="matrix(1.0124 0 0 1.0124 0 0)">
	</image>
</g>
<g id="Layer_3">
	<path fill="#BDE7FF" d="M507.494,174.104h-567.5v-38.601c23.25-19.5,39.75,1.25,39.75,1.25c13.5-31.75,40-11.75,40-11.75
		c9.75-8.75,16,0.5,16,0.5c2.25-5.25,8.25-2,8.25-2c4-14.75,18.75-5.75,18.75-5.75c1-8.25,11.75-6,11.75-6
		c2-14.75,16.75-12.25,16.75-12.25c15.25-20.75,31.25-2.5,31.25-2.5c16-15.5,23.75,3,23.75,3c18.25-7.25,21,12,21,12
		c44.5-27.75,56.25,13.5,56.25,13.5c17-9.5,19.25,9,19.25,9c7.25-5,11.5,1.75,11.5,1.75c14.5-18,26.75,2.25,26.75,2.25
		c6.75-9.25,19.5-1.5,19.5-1.5c8.75-18.5,27.833-5.417,27.833-5.417c21.667-23.333,43.833-5,43.833-5
		c6.833-11.833,18.5-4.526,18.5-4.526c26.833-32.359,53.667-3.974,53.667-3.974c11.167-8,26.5-5,26.5-5
		c17.833,3.667,18.5,18.5,18.5,18.5c10.667-10.833,18.167,3.167,18.167,3.167V174.104z"/>
	<path fill="#BDE7FF" d="M1642.494,174.104h-567.5v-38.601c23.25-19.5,39.75,1.25,39.75,1.25c13.5-31.75,40-11.75,40-11.75
		c9.75-8.75,16,0.5,16,0.5c2.25-5.25,8.25-2,8.25-2c4-14.75,18.75-5.75,18.75-5.75c1-8.25,11.75-6,11.75-6
		c2-14.75,16.75-12.25,16.75-12.25c15.25-20.75,31.25-2.5,31.25-2.5c16-15.5,23.75,3,23.75,3c18.25-7.25,21,12,21,12
		c44.5-27.75,56.25,13.5,56.25,13.5c17-9.5,19.25,9,19.25,9c7.25-5,11.5,1.75,11.5,1.75c14.5-18,26.75,2.25,26.75,2.25
		c6.75-9.25,19.5-1.5,19.5-1.5c8.75-18.5,27.833-5.417,27.833-5.417c21.667-23.333,43.833-5,43.833-5
		c6.833-11.833,18.5-4.526,18.5-4.526c26.833-32.359,53.667-3.974,53.667-3.974c11.167-8,26.5-5,26.5-5
		c17.833,3.667,18.5,18.5,18.5,18.5c10.667-10.833,18.167,3.167,18.167,3.167V174.104z"/>
	<path fill="#BDE7FF" d="M1074.994,174.104h-567.5v-38.601c23.25-19.5,39.75,1.25,39.75,1.25c13.5-31.75,40-11.75,40-11.75
		c9.75-8.75,16,0.5,16,0.5c2.25-5.25,8.25-2,8.25-2c4-14.75,18.75-5.75,18.75-5.75c1-8.25,11.75-6,11.75-6
		c2-14.75,16.75-12.25,16.75-12.25c15.25-20.75,31.25-2.5,31.25-2.5c16-15.5,23.75,3,23.75,3c18.25-7.25,21,12,21,12
		c44.5-27.75,56.25,13.5,56.25,13.5c17-9.5,19.25,9,19.25,9c7.25-5,11.5,1.75,11.5,1.75c14.5-18,26.75,2.25,26.75,2.25
		c6.75-9.25,19.5-1.5,19.5-1.5c8.75-18.5,27.833-5.417,27.833-5.417c21.667-23.333,43.833-5,43.833-5
		c6.833-11.833,18.5-4.526,18.5-4.526c26.833-32.359,53.667-3.974,53.667-3.974c11.167-8,26.5-5,26.5-5
		c17.833,3.667,18.5,18.5,18.5,18.5c10.667-10.833,18.167,3.167,18.167,3.167V174.104z"/>
</g>
<g id="Layer_2">
	<path fill="#FFFFFF" d="M567.5,153.75"/>
	<path fill="#EBF9FF" d="M567.5,193.101H1135V154.5c-23.25-19.5-39.75,1.25-39.75,1.25c-13.5-31.75-40-11.75-40-11.75
		c-9.75-8.75-16,0.5-16,0.5c-2.25-5.25-8.25-2-8.25-2c-4-14.75-18.75-5.75-18.75-5.75c-1-8.25-11.75-6-11.75-6
		c-2-14.75-16.75-12.25-16.75-12.25C968.5,97.75,952.5,116,952.5,116c-16-15.5-23.75,3-23.75,3c-18.25-7.25-21,12-21,12
		c-44.5-27.75-56.25,13.5-56.25,13.5c-17-9.5-19.25,9-19.25,9c-7.25-5-11.5,1.75-11.5,1.75c-14.5-18-26.75,2.25-26.75,2.25
		c-6.75-9.25-19.5-1.5-19.5-1.5c-8.75-18.5-27.833-5.417-27.833-5.417c-21.667-23.333-43.833-5-43.833-5
		c-6.833-11.833-18.5-4.526-18.5-4.526c-26.833-32.359-53.667-3.974-53.667-3.974c-11.167-8-26.5-5-26.5-5
		c-17.833,3.667-18.5,18.5-18.5,18.5C575,139.75,567.5,153.75,567.5,153.75V193.101z"/>
	<path fill="#EBF9FF" d="M0,193.101h567.5V154.5c-23.25-19.5-39.75,1.25-39.75,1.25c-13.5-31.75-40-11.75-40-11.75
		c-9.75-8.75-16,0.5-16,0.5c-2.25-5.25-8.25-2-8.25-2c-4-14.75-18.75-5.75-18.75-5.75c-1-8.25-11.75-6-11.75-6
		c-2-14.75-16.75-12.25-16.75-12.25C401,97.75,385,116,385,116c-16-15.5-23.75,3-23.75,3c-18.25-7.25-21,12-21,12
		c-44.5-27.75-56.25,13.5-56.25,13.5c-17-9.5-19.25,9-19.25,9c-7.25-5-11.5,1.75-11.5,1.75c-14.5-18-26.75,2.25-26.75,2.25
		c-6.75-9.25-19.5-1.5-19.5-1.5c-8.75-18.5-27.833-5.417-27.833-5.417c-21.667-23.333-43.833-5-43.833-5
		c-6.833-11.833-18.5-4.526-18.5-4.526c-26.833-32.359-53.667-3.974-53.667-3.974c-11.167-8-26.5-5-26.5-5
		c-17.833,3.667-18.5,18.5-18.5,18.5C7.5,139.75,0,153.75,0,153.75V193.101z"/>
</g>
</svg>
