<?xml version="1.0" encoding="utf-8"?>
<!-- Generator: Adobe Illustrator 17.0.0, SVG Export Plug-In . SVG Version: 6.00 Build 0)  -->
<!DOCTYPE svg PUBLIC "-//W3C//DTD SVG 1.1//EN" "http://www.w3.org/Graphics/SVG/1.1/DTD/svg11.dtd">
<svg version="1.1" id="Layer_1" xmlns="http://www.w3.org/2000/svg" xmlns:xlink="http://www.w3.org/1999/xlink" x="0px" y="0px"
	 width="438px" height="435px" viewBox="0 0 438 435" enable-background="new 0 0 438 435" xml:space="preserve">
<g id="Layer_1_1_" display="none">
	<path id="instagram-icon" display="inline" d="M341.205,197.143H460.93v183.795c0,44.77-36.292,81.062-81.062,81.062H132.133
		c-44.769,0-81.062-36.293-81.062-81.062V197.143H170.26c-12.2,17.141-19.399,38.087-19.399,60.729
		c0,57.919,46.953,104.872,104.873,104.872c57.919,0,104.872-46.953,104.872-104.872
		C360.605,235.229,353.405,214.283,341.205,197.143z M460.93,131.062v53.239H330.447c-19.022-19.315-45.465-31.302-74.714-31.302
		c-29.251,0-55.693,11.986-74.714,31.302H51.07v-53.239c0-27.322,13.532-51.469,34.245-66.154v87.289h16.62v-96.36
		c3.77-1.516,7.679-2.752,11.704-3.691v100.052h16.621V50.047c0.625-0.015,1.245-0.047,1.873-0.047h9.598v102.196h16.62V50h221.517
		C424.638,50,460.93,86.292,460.93,131.062z M423.879,96.897c0-7.181-5.822-13.002-13.003-13.002h-43.821
		c-7.183,0-13.003,5.821-13.003,13.002v44.785c0,7.181,5.82,13.002,13.003,13.002h43.821c7.181,0,13.003-5.821,13.003-13.002
		L423.879,96.897L423.879,96.897z M174.938,257.872c0-24.188,10.698-45.909,27.593-60.729c5.926-5.197,12.613-9.539,19.875-12.842
		c10.169-4.625,21.447-7.224,33.327-7.224c11.881,0,23.157,2.599,33.326,7.224c7.263,3.303,13.95,7.645,19.876,12.842
		c16.895,14.82,27.592,36.542,27.592,60.729c0,44.55-36.243,80.794-80.794,80.794C211.183,338.666,174.938,302.422,174.938,257.872z
		 M196.286,257.872c0,32.979,26.735,59.712,59.714,59.712s59.713-26.733,59.713-59.712c0-32.98-26.733-59.713-59.713-59.713
		C223.021,198.159,196.286,224.892,196.286,257.872z"/>
</g>
<g id="Layer_2">
	<path id="instagram-icon_1_" fill="#FFFFFF" d="M299.839,161.659H413.43v174.378c0,42.476-34.432,76.909-76.909,76.909H101.48
		c-42.475,0-76.909-34.433-76.909-76.909V161.659h113.082c-11.575,16.263-18.405,36.136-18.405,57.617
		c0,54.951,44.547,99.499,99.5,99.499c54.951,0,99.499-44.547,99.499-99.499C318.245,197.793,311.414,177.92,299.839,161.659z
		 M413.43,98.963v50.511H289.633c-18.047-18.325-43.136-29.698-70.886-29.698c-27.752,0-52.839,11.372-70.886,29.698H24.57V98.963
		c0-25.922,12.839-48.832,32.49-62.764v82.817h15.768V27.593c3.577-1.438,7.286-2.611,11.104-3.502v94.926h15.769V22.099
		c0.593-0.014,1.181-0.045,1.777-0.045h9.106v96.96h15.768v-96.96h210.167C378.997,22.055,413.43,56.487,413.43,98.963z
		 M378.277,66.549c0-6.813-5.524-12.336-12.337-12.336h-41.576c-6.815,0-12.337,5.523-12.337,12.336v42.49
		c0,6.813,5.522,12.336,12.337,12.336h41.576c6.813,0,12.337-5.523,12.337-12.336L378.277,66.549L378.277,66.549z M142.091,219.276
		c0-22.949,10.15-43.557,26.179-57.617c5.622-4.931,11.967-9.05,18.857-12.184c9.648-4.388,20.348-6.854,31.619-6.854
		c11.272,0,21.971,2.466,31.618,6.854c6.891,3.134,13.235,7.253,18.858,12.184c16.029,14.061,26.178,34.67,26.178,57.617
		c0,42.267-34.386,76.654-76.654,76.654C176.479,295.93,142.091,261.543,142.091,219.276z M162.346,219.276
		c0,31.289,25.365,56.653,56.654,56.653s56.654-25.363,56.654-56.653c0-31.29-25.363-56.653-56.654-56.653
		C187.711,162.623,162.346,187.986,162.346,219.276z"/>
</g>
</svg>
