<?xml version="1.0" encoding="utf-8"?>
<!-- Generator: Adobe Illustrator 17.0.0, SVG Export Plug-In . SVG Version: 6.00 Build 0)  -->
<!DOCTYPE svg PUBLIC "-//W3C//DTD SVG 1.1//EN" "http://www.w3.org/Graphics/SVG/1.1/DTD/svg11.dtd">
<svg version="1.1" id="Layer_1" xmlns="http://www.w3.org/2000/svg" xmlns:xlink="http://www.w3.org/1999/xlink" x="0px" y="0px"
	 width="581px" height="90px" viewBox="0 0 581 90" enable-background="new 0 0 581 90" xml:space="preserve">
<g>
	<g>
		<defs>
			<rect id="SVGID_1_" x="260.083" y="-323.227" width="225.663" height="52.538"/>
		</defs>
		<clipPath id="SVGID_2_">
			<use xlink:href="#SVGID_1_"  overflow="visible"/>
		</clipPath>
		<g clip-path="url(#SVGID_2_)">
			<defs>
				<rect id="SVGID_3_" x="260.083" y="-323.413" width="226" height="52.746"/>
			</defs>
			<clipPath id="SVGID_4_">
				<use xlink:href="#SVGID_3_"  overflow="visible"/>
			</clipPath>
			<path clip-path="url(#SVGID_4_)" fill="#FFFFFF" d="M482.635-307.277c-1.912-1.91-4.345-2.921-7.035-2.921h-7.176
				c-5.397,0-10.073,1.941-13.9,5.768c-0.514,0.514-0.986,1.044-1.432,1.588c-3.322-4.083-8.895-7.342-17.372-7.342
				c-6.404,0-11.517,1.868-15.217,5.532c-0.075-0.079-0.141-0.161-0.218-0.238c-1.99-1.981-4.518-3.027-7.311-3.027
				c0,0-2.419,0-4.835,0c0-2.369,0-4.744,0-4.744c0-2.786-1.042-5.308-3.014-7.291c-1.983-1.994-4.505-3.048-7.294-3.048
				c-2.808,0-5.338,1.03-7.317,2.978l-0.007,0.008c-1.992,1.97-3.044,4.513-3.044,7.358l0.015-0.395
				c-0.078,0.998-0.206,2.9-0.275,5.343c-0.678-0.136-1.379-0.208-2.097-0.208c0,0-2.419,0-4.835,0c0-2.369,0-4.744,0-4.744
				c0-2.789-1.043-5.312-3.016-7.294c-1.981-1.992-4.502-3.045-7.292-3.045c-2.639,0-5.025,0.919-6.945,2.645
				c-1.923-1.754-4.303-2.689-6.924-2.689c-2.793,0-5.319,1.049-7.306,3.034l-0.004,0.004c-1.982,1.985-3.03,4.51-3.03,7.301
				c0,0.98,0.137,1.925,0.391,2.827c-1.048-0.368-2.161-0.568-3.327-0.568c-2.703,0-5.146,1.016-7.065,2.94
				c-1.39,1.392-2.288,3.064-2.687,4.904c-0.4-1.844-1.302-3.519-2.698-4.911c-1.919-1.918-4.364-2.932-7.067-2.932
				c-2.757,0-5.234,1.035-7.161,2.994c-1.368,1.397-2.249,3.056-2.65,4.866c-0.397-1.89-1.315-3.59-2.735-4.986
				c-1.913-1.881-4.345-2.875-7.032-2.875c-1.718,0-3.328,0.41-4.768,1.195c-0.065-0.068-0.122-0.14-0.189-0.206
				c-1.986-1.978-4.516-3.026-7.311-3.026c0,0-5.894,0-10.512,0c0-0.012,0-0.178,0-0.178c0-2.789-1.044-5.312-3.02-7.296
				c-1.97-1.988-4.493-3.043-7.288-3.043c-2.812,0-5.343,1.031-7.32,2.981l-0.003,0.003c-1.993,1.969-3.046,4.513-3.046,7.359v20.99
				c0,5.71,2.052,10.658,6.101,14.706c4.047,4.048,8.995,6.1,14.705,6.1h10.403c2.793,0,5.319-1.048,7.305-3.033
				c0.621-0.62,1.138-1.297,1.573-2.014c3.692,3.335,8.108,5.047,13.16,5.047c3.556,0,6.808-0.907,9.741-2.626
				c2.956,1.72,6.22,2.626,9.776,2.626c5.363,0,10.015-1.912,13.838-5.668c0.486,0.949,1.121,1.833,1.913,2.628
				c1.993,1.991,4.519,3.041,7.312,3.041c2.793,0,5.318-1.049,7.303-3.035c0.948-0.947,1.674-2.021,2.184-3.185
				c3.723,4.069,8.845,6.221,14.819,6.221h4.722c2.796,0,5.323-1.049,7.307-3.035c0.728-0.726,1.327-1.526,1.798-2.385
				c3.644,3.548,8.471,5.419,14.041,5.419h4.723c2.793,0,5.32-1.048,7.306-3.033c0.623-0.623,1.143-1.303,1.578-2.023
				c3.765,3.256,8.504,5.04,13.514,5.054c7.871,0.195,12.613-1.981,15.326-4.053c0.293,0.392,0.606,0.772,0.962,1.129
				c1.911,1.913,4.345,2.925,7.038,2.925c2.694,0,5.128-1.013,7.04-2.929c1.907-1.909,2.917-4.343,2.917-7.035c0,0,0-8.975,0-9.458
				c0.534,0,6.926-0.001,6.926-0.001c2.688,0,5.12-1.008,7.034-2.917c1.918-1.915,2.931-4.348,2.931-7.04
				C485.563-302.932,484.55-305.364,482.635-307.277 M444.947-291.612c-0.041,0.007-0.085,0.004-0.127,0.011l0.22-0.036
				C445.006-291.631,444.981-291.617,444.947-291.612z M435.449-270.861c-0.02,0-0.04-0.001-0.06-0.001
				c-0.026-0.001-0.049,0.001-0.076,0L435.449-270.861z"/>
			<path clip-path="url(#SVGID_4_)" fill="none" stroke="#DEDEDD" d="M482.635-307.277c-1.912-1.91-4.345-2.921-7.035-2.921h-7.176
				c-5.397,0-10.073,1.941-13.9,5.768c-0.514,0.514-0.986,1.044-1.432,1.588c-3.322-4.083-8.895-7.342-17.372-7.342
				c-6.404,0-11.517,1.868-15.217,5.532c-0.075-0.079-0.141-0.161-0.218-0.238c-1.99-1.981-4.518-3.027-7.311-3.027
				c0,0-2.419,0-4.835,0c0-2.369,0-4.744,0-4.744c0-2.786-1.042-5.308-3.014-7.291c-1.983-1.994-4.505-3.048-7.294-3.048
				c-2.808,0-5.338,1.03-7.317,2.978l-0.007,0.008c-1.992,1.97-3.044,4.513-3.044,7.358l0.015-0.395
				c-0.078,0.998-0.206,2.9-0.275,5.343c-0.678-0.136-1.379-0.208-2.097-0.208c0,0-2.419,0-4.835,0c0-2.369,0-4.744,0-4.744
				c0-2.789-1.043-5.312-3.016-7.294c-1.981-1.992-4.502-3.045-7.292-3.045c-2.639,0-5.025,0.919-6.945,2.645
				c-1.923-1.754-4.303-2.689-6.924-2.689c-2.793,0-5.319,1.049-7.306,3.034l-0.004,0.004c-1.982,1.985-3.03,4.51-3.03,7.301
				c0,0.98,0.137,1.925,0.391,2.827c-1.048-0.368-2.161-0.568-3.327-0.568c-2.703,0-5.146,1.016-7.065,2.94
				c-1.39,1.392-2.288,3.064-2.687,4.904c-0.4-1.844-1.302-3.519-2.698-4.911c-1.919-1.918-4.364-2.932-7.067-2.932
				c-2.757,0-5.234,1.035-7.161,2.994c-1.368,1.397-2.249,3.056-2.65,4.866c-0.397-1.89-1.315-3.59-2.735-4.986
				c-1.913-1.881-4.345-2.875-7.032-2.875c-1.718,0-3.328,0.41-4.768,1.195c-0.065-0.068-0.122-0.14-0.189-0.206
				c-1.986-1.978-4.516-3.026-7.311-3.026c0,0-5.894,0-10.512,0c0-0.012,0-0.178,0-0.178c0-2.789-1.044-5.312-3.02-7.296
				c-1.97-1.988-4.493-3.043-7.288-3.043c-2.812,0-5.343,1.031-7.32,2.981l-0.003,0.003c-1.993,1.969-3.046,4.513-3.046,7.359v20.99
				c0,5.71,2.052,10.658,6.101,14.706c4.047,4.048,8.995,6.1,14.705,6.1h10.403c2.793,0,5.319-1.048,7.305-3.033
				c0.621-0.62,1.138-1.297,1.573-2.014c3.692,3.335,8.108,5.047,13.16,5.047c3.556,0,6.808-0.907,9.741-2.626
				c2.956,1.72,6.22,2.626,9.776,2.626c5.363,0,10.015-1.912,13.838-5.668c0.486,0.949,1.121,1.833,1.913,2.628
				c1.993,1.991,4.519,3.041,7.312,3.041c2.793,0,5.318-1.049,7.303-3.035c0.948-0.947,1.674-2.021,2.184-3.185
				c3.723,4.069,8.845,6.221,14.819,6.221h4.722c2.796,0,5.323-1.049,7.307-3.035c0.728-0.726,1.327-1.526,1.798-2.385
				c3.644,3.548,8.471,5.419,14.041,5.419h4.723c2.793,0,5.32-1.048,7.306-3.033c0.623-0.623,1.143-1.303,1.578-2.023
				c3.765,3.256,8.504,5.04,13.514,5.054c7.871,0.195,12.613-1.981,15.326-4.053c0.293,0.392,0.606,0.772,0.962,1.129
				c1.911,1.913,4.345,2.925,7.038,2.925c2.694,0,5.128-1.013,7.04-2.929c1.907-1.909,2.917-4.343,2.917-7.035c0,0,0-8.975,0-9.458
				c0.534,0,6.926-0.001,6.926-0.001c2.688,0,5.12-1.008,7.034-2.917c1.918-1.915,2.931-4.348,2.931-7.04
				C485.563-302.932,484.55-305.364,482.635-307.277z M444.947-291.612c-0.041,0.007-0.085,0.004-0.127,0.011l0.22-0.036
				C445.006-291.631,444.981-291.617,444.947-291.612z M435.449-270.861c-0.02,0-0.04-0.001-0.06-0.001
				c-0.026-0.001-0.049,0.001-0.076,0L435.449-270.861z"/>
		</g>
	</g>
	<g>
		<defs>
			<rect id="SVGID_5_" x="260.083" y="-323.413" width="226" height="52.746"/>
		</defs>
		<clipPath id="SVGID_6_">
			<use xlink:href="#SVGID_5_"  overflow="visible"/>
		</clipPath>
		<path clip-path="url(#SVGID_6_)" fill="#4AC8F5" d="M296.737-281.2c0,1.444-0.516,2.683-1.548,3.712
			c-1.032,1.031-2.269,1.546-3.714,1.546h-10.403c-4.334,0-8.037-1.537-11.113-4.613c-3.076-3.076-4.612-6.779-4.612-11.113v-20.99
			c0-1.486,0.512-2.733,1.536-3.746c1.025-1.011,2.275-1.517,3.753-1.517c1.434,0,2.666,0.516,3.689,1.548
			c1.026,1.03,1.54,2.266,1.54,3.711v5.258h15.592c1.45,0,2.693,0.516,3.729,1.548c1.036,1.03,1.552,2.267,1.552,3.712
			c0,1.442-0.516,2.68-1.548,3.711c-1.032,1.03-2.272,1.546-3.716,1.546h-15.609v5.213c0,1.449,0.504,2.679,1.517,3.694
			c1.012,1.012,2.241,1.519,3.686,1.519h10.406c1.444,0,2.684,0.517,3.716,1.548C296.221-283.879,296.737-282.642,296.737-281.2"/>
		<path clip-path="url(#SVGID_6_)" fill="#4AC8F5" d="M347.737-290.654c0,4.055-1.437,7.522-4.314,10.398
			c-2.876,2.877-6.34,4.315-10.393,4.315c-3.707,0-6.969-1.254-9.788-3.763c-2.779,2.509-6.023,3.763-9.729,3.763
			c-4.052,0-7.518-1.438-10.395-4.315c-2.875-2.876-4.313-6.343-4.313-10.398v-9.789c0-1.391,0.481-2.557,1.448-3.504
			c0.962-0.947,2.121-1.42,3.47-1.42c1.352,0,2.509,0.473,3.472,1.42c0.964,0.947,1.446,2.116,1.446,3.506v9.795
			c0,1.355,0.474,2.503,1.418,3.45c0.947,0.947,2.097,1.418,3.447,1.418c1.313,0,2.442-0.471,3.388-1.418
			c0.946-0.948,1.418-2.095,1.418-3.45v-9.737c0-1.352,0.485-2.519,1.45-3.506c0.968-0.984,2.148-1.478,3.54-1.478
			c1.352,0,2.512,0.483,3.479,1.45c0.967,0.965,1.451,2.126,1.451,3.476v9.795c0,1.355,0.473,2.503,1.419,3.45
			c0.944,0.947,2.076,1.418,3.387,1.418c1.352,0,2.501-0.471,3.446-1.418c0.947-0.948,1.419-2.095,1.419-3.45v-9.795
			c0-1.35,0.483-2.511,1.447-3.476c0.964-0.967,2.122-1.45,3.47-1.45c1.351,0,2.509,0.483,3.472,1.448
			c0.964,0.966,1.446,2.123,1.446,3.475V-290.654"/>
		<path clip-path="url(#SVGID_6_)" fill="#4AC8F5" d="M361.351-312.705c0,1.442-0.514,2.681-1.546,3.711
			c-1.031,1.03-2.268,1.547-3.711,1.547c-1.445,0-2.682-0.517-3.714-1.547c-1.029-1.03-1.545-2.269-1.545-3.711
			c0-1.444,0.516-2.681,1.545-3.712c1.033-1.032,2.269-1.547,3.714-1.547c1.442,0,2.679,0.515,3.711,1.547
			C360.837-315.386,361.351-314.149,361.351-312.705 M361.351-281.205c0,1.445-0.514,2.685-1.546,3.716
			c-1.031,1.032-2.268,1.548-3.711,1.548c-1.445,0-2.682-0.515-3.714-1.548c-1.029-1.031-1.545-2.271-1.545-3.716v-17.087
			c0-1.445,0.516-2.685,1.545-3.716c1.033-1.032,2.269-1.548,3.714-1.548c1.442,0,2.679,0.516,3.711,1.548
			c1.032,1.031,1.546,2.271,1.546,3.716V-281.205z"/>
		<path clip-path="url(#SVGID_6_)" fill="#4AC8F5" d="M390.386-281.2c0,1.444-0.516,2.683-1.548,3.712
			c-1.031,1.031-2.27,1.546-3.716,1.546H380.4c-4.333,0-8.189-1.391-11.113-4.613c-6.556-7.225-4.613-32.103-4.613-32.103
			c0-1.486,0.513-2.733,1.537-3.746c1.025-1.011,2.277-1.517,3.752-1.517c1.436,0,2.664,0.516,3.691,1.548
			c1.025,1.03,1.537,2.266,1.537,3.711v9.824h9.916c1.447,0,2.69,0.516,3.728,1.548c1.033,1.029,1.552,2.267,1.552,3.71
			s-0.516,2.682-1.55,3.712c-1.031,1.03-2.27,1.546-3.716,1.546h-9.363c0,0-0.06,3.327,0.952,4.342
			c1.012,1.012,2.241,1.519,3.686,1.519h4.725c1.446,0,2.685,0.517,3.716,1.548C389.87-283.879,390.386-282.642,390.386-281.2"/>
		<path clip-path="url(#SVGID_6_)" fill="#4AC8F5" d="M418.256-281.2c0,1.444-0.518,2.683-1.549,3.712
			c-1.033,1.031-2.271,1.546-3.715,1.546h-4.723c-4.333,0-8.191-1.391-11.113-4.613c-6.556-7.225-4.613-32.103-4.613-32.103
			c0-1.486,0.512-2.733,1.537-3.746c1.026-1.011,2.277-1.517,3.752-1.517c1.435,0,2.665,0.516,3.691,1.548
			c1.023,1.03,1.537,2.266,1.537,3.711v9.824h9.916c1.447,0,2.69,0.516,3.727,1.548c1.035,1.029,1.554,2.267,1.554,3.71
			s-0.518,2.682-1.551,3.712c-1.032,1.03-2.271,1.546-3.716,1.546h-9.363c0,0-0.061,3.327,0.952,4.342
			c1.013,1.012,2.242,1.519,3.686,1.519h4.726c1.445,0,2.684,0.517,3.716,1.548C417.738-283.879,418.256-282.642,418.256-281.2"/>
		<path clip-path="url(#SVGID_6_)" fill="#4AC8F5" d="M480.482-300.24c0,1.337-0.479,2.486-1.438,3.442
			c-0.957,0.955-2.106,1.434-3.446,1.434h-7.181c-1.341,0-2.48,0.47-3.419,1.408c-0.94,0.938-1.407,2.077-1.407,3.419v9.711
			c0,1.34-0.477,2.491-1.434,3.447c-0.957,0.959-2.104,1.437-3.443,1.437c-1.337,0-2.486-0.477-3.442-1.435
			c-0.957-0.957-1.434-2.104-1.434-3.446v-9.706c0-4.02,1.425-7.457,4.276-10.31c2.852-2.852,6.288-4.279,10.308-4.279h7.176
			c1.34,0,2.488,0.479,3.446,1.435C480.003-302.726,480.482-301.578,480.482-300.24"/>
		<path clip-path="url(#SVGID_6_)" fill="#4AC8F5" d="M445.743-286.605c-2.349,0.329-4.175,2.457-8.161,2.426
			c-7.248-0.31-6.686-3.568-6.686-3.568h15.943c3.58,0,5.153-1.193,5.153-4.556c0-4.23-3.797-12.799-16.271-12.799
			c-15.942,0-15.642,13.786-15.642,13.786c0,4.335,1.181,7.687,4.256,10.763c3.077,3.076,6.977,4.613,11.115,4.613
			c11.372,0.303,15.331-5.02,14.865-8.006C449.8-286.464,447.328-286.897,445.743-286.605 M436.262-297.678c0,0,5.207,0,5.207,3.364
			h-10.468C431.002-297.678,436.262-297.678,436.262-297.678z"/>
	</g>
</g>
<rect x="459.311" y="18.925" fill="none" width="139" height="57"/>
<text transform="matrix(1 0 0 1 459.3113 55.4248)" fill="#FFFFFF" font-family="'Gotham-Bold'" font-size="50">feed</text>
<rect x="6.551" y="18.925" fill="none" width="222.75" height="57"/>
<text transform="matrix(1 0 0 1 6.5507 55.4248)" fill="#FFFFFF" font-family="'Gotham-Bold'" font-size="50">engage</text>
<g>
	<path fill-rule="evenodd" clip-rule="evenodd" fill="#FFFFFF" d="M345.904,59.218c0.046,5.187,0.746,16.597-2.096,20.821
		c-1.044,1.553-3.529,3.045-5.039,0.89C335.232,75.878,341.446,61.451,345.904,59.218L345.904,59.218z M341.705,27.63
		c2.785-0.953,4.022,1.676,4.377,4.114c0.468,3.213-0.891,4.604-1.027,7.604c-0.53,11.677-7.522,18.089-8.847,8.887
		C335.39,42.552,336.02,29.575,341.705,27.63L341.705,27.63z M315.221,28.167c4.089-0.971,4.789,4.566,4.587,6.203
		c-0.26,2.109-0.87-0.907-1.421,5.223c-0.281,3.13-0.73,8.333-2.207,11.099c-1.154,2.16-5.208,5.735-6.363-1.848
		C308.967,43.265,309.472,29.534,315.221,28.167L315.221,28.167z M296.818,10.831c-1.325-1.068-3.982-1.704-6.127-1.67
		c-0.685,3.14-0.479,6.793-0.692,10.189c-0.164,2.62-0.824,1.856-3.423,1.893c-1.724,0.026-3.5-0.046-4.606,0.867
		c-0.134,3.066,5.529,2.701,7.584,3.554c0.158,8.321-1.781,18.019,1.043,25.622c1.061,2.858,4.046,6.824,8.279,4.993
		c3.26-1.41,4.406-5.624,5.583-8.059c2.198,7.406,2.212,7.275,8.114,8.428c4.36,0.851,6.56-4.899,7.828-8.429
		c0.642,1.555,0.462,2.262,1.519,3.748c0.64,0.899,1.595,1.943,3.123,2.32c3.565,0.88,5.167-1.827,6.609-3.448l0.281-0.279
		c1.194,5.295,4.199,5.331,7.301,6.022c4.407,0.981,5.232-3.906,6.929-6.024c-0.478,9.022,0.298,4.648-3.191,8.455
		c-0.902,0.985-1.809,1.692-2.645,2.771c-4.172,5.391-10.086,18.989-2.456,22.504c1.981,0.913,7.392,1.756,9.571,0.857
		c2.258-0.93,3.316-3.818,3.857-6.719c1.251-6.709,0.111-14.074,0.613-20.842c1.645-0.354,2.699,0.586,3.69-1.045
		c-0.17-1.835-2.004-1.835-3.72-1.94c-0.084-3.198-0.102-6.44,0.003-9.638c0.233-7.051,1.216-6.047,1.365-7.881
		c-0.621-0.564-0.516-0.382-1.452-0.689c-1.098-0.361-0.788-0.092-1.222-0.859c-0.843-1.962,1.388-5.711-0.816-8.685
		c-1.85-2.496-4.228-1.975-7.196-3.39c-6.323-3.013-9.099,3.554-10.258,8.874c-1.907,8.758,0.165,14.423-2.99,17.946
		c-2.849,3.181-3.958-2.295-4.076-4.808c-0.417-8.906,2.977-8.816-1.174-10.414c-0.641-4.241,0.677-7.296-2.279-10.028
		c-0.881-0.814-2.95-1.16-4.29-1.86c-1.5-0.782-3.272-1.244-5.283-0.841c-6.347,1.271-7.199,11.819-7.775,16.668
		c-0.262,2.208-0.442-0.566-1.587,4.522c-1.881,8.364-5.873,11.192-7.108,5.318c-0.619-2.941-0.487-20.932,0.335-23.394
		c0.579-0.756,6.864-1.126,8.23-1.099c1.475,0.027,1.784,0.518,2.186,0.107c2.518-3.363-8.728-2.775-10.421-3.342L296.818,10.831z"
		/>
	<path fill-rule="evenodd" clip-rule="evenodd" fill="#FFFFFF" d="M385.45,28.201c3.697-1.045,4.772,3.59,4.657,5.949
		c-0.074,1.527-0.037,0.629-0.708,1.609c-1.466,2.138-0.085,14.478-5.025,17.142c-5.23,2.82-4.751-8.958-4.471-12.373
		C380.225,36.573,381.156,29.416,385.45,28.201L385.45,28.201z M355.057,25.682c-0.121,3.706,0.421,7.549,0.3,11.404
		c-0.059,1.897-0.112,3.801-0.374,5.648c-0.196,1.378-0.915,3.629-0.6,4.847c2.682,0.938,3.16-3.958,3.527-6.133
		c0.411-2.437,0.667-6.553,1.273-8.558c0.437-0.1,0.934-0.246,1.505-0.208c2.726,0.18,0.656,4.531,0.95,10.563
		c0.229,4.686,1.991,15.039,8.665,12.562c2.569-0.954,3.507-3.571,4.689-6.147c0.903,1.638,1.429,5.947,5.229,6.519
		c4.015,0.606,6.238,1.675,9.332-5.006c0.241-0.52,0.325-0.855,0.541-1.41c0.112-0.288,0.199-0.49,0.345-0.723
		c0.285-0.453,0.116-0.221,0.437-0.533c0.466,2.924,2.355,5.798,5.515,5.94c3.282,0.149,5.018-2.945,6.308-4.974
		c0.301,1.867-0.047,4.921,1.459,5.705c1.386,0.721,4.585,1.086,6.026,0.373c0.717-0.925,0.497-3.431,0.635-4.733
		c0.165-1.563,0.374-3.068,0.644-4.592c0.257-1.459,0.949-7.119,2.444-7.952c0.716,5.337-1.192,13.848,2.349,15.403
		c0.793,0.348,1.655,0.436,2.551,0.419c3.04-0.056,2.051-1.154,3.154-5.492c0.752-2.96,2.796-10.188,4.48-12.023
		c0.069,4.328-0.77,7.402,0.121,11.982c1.54,7.915,8.489,10.329,12.729,2.619c0.755-1.372,3.487-7.989,2.102-9.572
		c-2.227-2.301-2.057,5.324-4.244,8.409c-0.899,1.268-3.036,2.677-4.108,0.66c-0.697-1.311-0.898-3.748-0.948-5.463
		c-0.381-13.307,4.196-12.505-0.341-15.415c-1.792-1.149-2.861-1.368-5.314-1.022c-1.158,0.644-5.747,15.237-6.536,16.572
		c-0.238,0.404-0.135,0.234-0.361,0.471c-0.076-3.301-0.025-6.66-0.021-9.966c0.002-1.699,0.409-3.219-0.844-4.052
		c-1.016-0.676-2.637-0.901-4.042-0.628c-2.058,0.4-3.023,3.798-3.713,5.907c-0.439,1.342-1.979,6.288-2.108,7.275l-0.005-17.119
		c-0.782-1.199-4.178-1.618-5.656-1.123c-0.308,0.789-0.327,10.256-0.371,11.956c-0.068,2.577,0.204,3.993-0.522,5.613
		c-0.56,1.245-0.825,3.109-1.398,4.523c-1.7,4.196-4.546,4.055-5.189-1.038c-0.223-1.758-0.254-3.964-0.104-5.774
		c0.136-1.645,1.023-3.862,0.818-5.047c-0.824-0.946-0.957-0.656-2.041-1.395c-0.492-2.566,0.195-5.455-0.778-7.839
		c-1.198-2.938-2.36-2.354-5.076-3.548c-2.199-0.966-4.063-2.139-7.031-0.921c-2.161,0.887-3.101,2.379-4.141,4.48
		c-0.96,1.939-1.594,4.295-1.993,6.63c-0.354,2.073-0.445,6.065-0.944,7.661c-1.019,3.26-2.007,11.906-5.81,11.452
		C366.388,50.821,366.707,45.303,367,42c0.172-1.949,0.437-3.779,0.856-5.616c0.362-1.588,1.353-3.66,1.272-5.207
		c-1.955-2.856-6.483-1.145-9.109-2.498c-0.146-1.632,0.145-2.711-0.24-4.267C357.859,23.673,356.415,24.571,355.057,25.682z"/>
	<path fill-rule="evenodd" clip-rule="evenodd" fill="#FFFFFF" d="M270.397,48.412c0.877-2.507,1.361-3.705,1.464-6.807
		c1.641,1.882,7.952,5.669,8.69,7.937c0.985,3.027-3.082,3.06-5.005,2.017c-0.895-0.486-1.712-1.176-2.423-1.76
		C271.784,48.7,271.647,49.074,270.397,48.412L270.397,48.412z M254.133,53.837c0.952-2.663,1.99-13.057,4.653-15.259
		c0.337,5.626-1.847,14.838,5.386,14.546c2.385-0.096,3.485-1.339,4.675-2.229c1.183,1.568,1.531,2.086,3.791,2.837
		c4.974,1.653,15.238,0.944,14.139-4.517c-0.964-4.789-14.845-8.903-10.053-15.332c0.743-0.995,3.263-2.096,4.788-1.092
		c0.206,0.136,2.253,2.79,4.173-0.038c0.823-1.211,1.783-3.934,0.581-5.207c-2.305-2.443-11.544-0.065-14.994,3.349
		c-3.252,3.218-2.268,6.556-0.038,9.93c-2.565,0.704-0.798,0.476-2.448,5.061c-0.729,2.026-1.632,3.954-3.999,3.565
		c-1.995-3.154-0.54-9.429-0.795-13.85c-0.15-2.605-1.155-5.715-4.177-4.859c-2.463,0.697-5.15,8.381-6.381,11.467
		c-0.228-3.158,0.208-12.947-0.071-14.476c-0.308-1.69-4.444-2.48-5.046-1.578c-0.353,0.529-0.993,19.259-1.064,20.792
		c-0.081,1.763-0.01,5.199,0.899,6.404C249.193,54.727,252.438,54.284,254.133,53.837z"/>
	<path fill-rule="evenodd" clip-rule="evenodd" fill="#FFFFFF" d="M236.567,36.331c-5.095,1.027-6.279-3.072-6.823-7.623
		c-1.454-12.177,4.816-16.914,6.88-13.56c0.708,1.15-0.049,4.634-0.045,6.425C236.592,26.468,236.657,31.445,236.567,36.331
		L236.567,36.331z M236.499,41.118c0.353,4.055-2.389,8.141-4.273,9.826c-2.565,2.293-6.32,3.766-10.934,2.675
		c-4.882-1.155-6.135-5.772-4.513-8.266c0.966-1.483,2.369-2.206,3.121-4.032c2.782-6.754-7.499-5.912-7.618,3.885
		c-0.121,9.965,7.377,12.536,15.942,12.02c15.523-0.938,14.706-15.195,14.706-27.526c0-4.679-0.014-9.359,0.002-14.038
		c0.03-8.751,0.256-6.448-6.181-7.263c-2.731-0.346-3.938,0.205-5.317,1.616C223.247,18.388,221.182,41.753,236.499,41.118z"/>
</g>
<path fill-rule="evenodd" clip-rule="evenodd" fill="#DFE8F1" d="M-142.085,143.185H-68.7c6.97,0,12.672,5.702,12.672,12.672v73.385
	c0,6.97-5.702,12.672-12.672,12.672h-73.384c-6.97,0-12.672-5.702-12.672-12.672v-73.385
	C-154.757,148.887-149.054,143.185-142.085,143.185L-142.085,143.185z M-82.837,154.154c-2.445,0-4.444,1.999-4.444,4.445v10.639
	c0,2.445,1.999,4.445,4.444,4.445h11.159c2.444,0,4.444-2,4.444-4.445v-10.639c0-2.445-2-4.445-4.444-4.445H-82.837L-82.837,154.154
	z M-67.187,184.936h-8.69c0.822,2.685,1.267,5.527,1.267,8.471c0,16.422-13.74,29.734-30.688,29.734
	c-16.948,0-30.687-13.312-30.687-29.734c0-2.944,0.444-5.786,1.266-8.471h-9.067v41.705c0,2.159,1.766,3.925,3.925,3.925h68.751
	c2.158,0,3.925-1.766,3.925-3.925V184.936L-67.187,184.936z M-105.299,173.122c-10.95,0-19.828,8.602-19.828,19.212
	c0,10.611,8.878,19.213,19.828,19.213c10.951,0,19.829-8.602,19.829-19.213C-85.47,181.724-94.348,173.122-105.299,173.122z"/>
</svg>
