<?xml version="1.0" encoding="utf-8"?>
<!-- Generator: Adobe Illustrator 17.0.0, SVG Export Plug-In . SVG Version: 6.00 Build 0)  -->
<!DOCTYPE svg PUBLIC "-//W3C//DTD SVG 1.1//EN" "http://www.w3.org/Graphics/SVG/1.1/DTD/svg11.dtd">
<svg version="1.1" id="Layer_1" xmlns:sketch="http://www.bohemiancoding.com/sketch/ns"
	 xmlns="http://www.w3.org/2000/svg" xmlns:xlink="http://www.w3.org/1999/xlink" x="0px" y="0px" width="14.503px"
	 height="20.382px" viewBox="2.181 -2.537 14.503 20.382" enable-background="new 2.181 -2.537 14.503 20.382" xml:space="preserve"
	>
<title></title>
<g id="Icons_with_numbers">
	<g id="Group" transform="translate(-480.000000, -192.000000)">
		<path id="Rectangle_233" fill="#FFFFFF" d="M485.117,199.274l4.316,6.495l0,0c0.401,0.59,0.451,1.522-0.088,2.487
			c-0.748,1.34-2.133,1.848-3.019,1.464c-0.886-0.384-1.273-1.662-0.525-3.001c0.503-0.901,1.294-1.426,2.028-1.557l-3.434-5.168
			l-2.214-3.332l7.222-7.2l0.553,0.833l1.66,2.499l4.76,7.163l0,0c0.4,0.59,0.449,1.521-0.089,2.485
			c-0.748,1.34-2.133,1.848-3.019,1.464c-0.886-0.384-1.273-1.662-0.525-3.001c0.503-0.901,1.294-1.426,2.028-1.557l-3.877-5.835
			L485.117,199.274z"/>
	</g>
</g>
</svg>
