<?xml version="1.0" encoding="utf-8"?>
<!-- Generator: Adobe Illustrator 17.0.0, SVG Export Plug-In . SVG Version: 6.00 Build 0)  -->
<!DOCTYPE svg PUBLIC "-//W3C//DTD SVG 1.1//EN" "http://www.w3.org/Graphics/SVG/1.1/DTD/svg11.dtd">
<svg version="1.1" id="Layer_1" xmlns="http://www.w3.org/2000/svg" xmlns:xlink="http://www.w3.org/1999/xlink" x="0px" y="0px"
	 width="364.482px" height="364.506px" viewBox="56.947 90.549 364.482 364.506"
	 enable-background="new 56.947 90.549 364.482 364.506" xml:space="preserve">
<path id="refresh-2-icon" fill="#FFFFFF" d="M61.799,314.404c22.973,97.973,121.019,158.772,218.992,135.798
	c87.678-20.559,145.572-101.244,140.306-188.193l-58.589-0.553c5.655,60.605-34.111,117.623-95.044,131.911
	c-66.582,15.614-133.215-25.706-148.828-92.289c-15.613-66.583,25.706-133.217,92.289-148.83
	c40.135-9.411,80.098,1.683,109.085,26.709l-33.467,33.467l108.874-0.001l-0.27-108.603L361.366,137.6
	C318.506,98.893,258.082,81.23,197.598,95.412C99.625,118.387,38.827,216.432,61.799,314.404z"/>
</svg>
