<?xml version="1.0" encoding="utf-8"?>
<!-- Generator: Adobe Illustrator 17.0.0, SVG Export Plug-In . SVG Version: 6.00 Build 0)  -->
<!DOCTYPE svg PUBLIC "-//W3C//DTD SVG 1.1//EN" "http://www.w3.org/Graphics/SVG/1.1/DTD/svg11.dtd">
<svg version="1.1" id="Layer_1" xmlns="http://www.w3.org/2000/svg" xmlns:xlink="http://www.w3.org/1999/xlink" x="0px" y="0px"
	 width="193.709px" height="35.557px" viewBox="0 0 193.709 35.557" enable-background="new 0 0 193.709 35.557"
	 xml:space="preserve">
<g>
	<text transform="matrix(1 0 0 1 102 -58.3816)"><tspan x="0" y="0" fill="#4AC7F4" stroke="#FFFFFF" stroke-width="6" stroke-miterlimit="10" font-family="'PicoBlackAl'" font-size="43.0998">f</tspan><tspan x="17.196" y="0" fill="#4AC7F4" stroke="#FFFFFF" stroke-width="6" stroke-miterlimit="10" font-family="'zArista'" font-size="45.3682">e</tspan><tspan x="40.924" y="0" fill="#4AC7F4" stroke="#FFFFFF" stroke-width="6" stroke-miterlimit="10" font-family="'zArista'" font-size="45.3682">e</tspan><tspan x="64.333" y="0" fill="#4AC7F4" stroke="#FFFFFF" stroke-width="6" stroke-miterlimit="10" font-family="'PicoBlackAl'" font-size="41.9656">d</tspan></text>
	<g>
		<g>
			<linearGradient id="SVGID_1_" gradientUnits="userSpaceOnUse" x1="145.6313" y1="-87.6035" x2="145.6313" y2="-58.3734">
				<stop  offset="0" style="stop-color:#CCE0F4"/>
				<stop  offset="0.0851" style="stop-color:#C3DCF5"/>
				<stop  offset="0.2265" style="stop-color:#A9D2F7"/>
				<stop  offset="0.4057" style="stop-color:#80C1FB"/>
				<stop  offset="0.5674" style="stop-color:#55B0FF"/>
				<stop  offset="0.8652" style="stop-color:#15A6FF"/>
				<stop  offset="0.9944" style="stop-color:#158CFF"/>
			</linearGradient>
			<path fill="url(#SVGID_1_)" d="M118.636-69.286c0,1.006-0.359,1.868-1.078,2.586c-0.718,0.719-1.58,1.077-2.586,1.077h-4.999
				v3.578c0,1.006-0.359,1.868-1.078,2.586c-0.718,0.718-1.58,1.077-2.586,1.077c-1.034,0-1.911-0.359-2.628-1.077
				c-0.719-0.718-1.077-1.58-1.077-2.586v-14.611c0-3.017,1.07-5.596,3.21-7.736c2.14-2.141,4.72-3.211,7.736-3.211h1.422
				c1.006,0,1.868,0.359,2.586,1.077c0.719,0.719,1.078,1.581,1.078,2.586c0,1.007-0.359,1.868-1.078,2.586
				c-0.718,0.719-1.58,1.078-2.586,1.078h-1.379c-1.006,0-1.868,0.359-2.586,1.077c-0.719,0.719-1.077,1.566-1.077,2.543v3.707
				h5.042c1.006,0,1.868,0.359,2.586,1.077C118.277-71.153,118.636-70.292,118.636-69.286z"/>
			<linearGradient id="SVGID_2_" gradientUnits="userSpaceOnUse" x1="145.6313" y1="-87.6035" x2="145.6313" y2="-58.3734">
				<stop  offset="0" style="stop-color:#CCE0F4"/>
				<stop  offset="0.0851" style="stop-color:#C3DCF5"/>
				<stop  offset="0.2265" style="stop-color:#A9D2F7"/>
				<stop  offset="0.4057" style="stop-color:#80C1FB"/>
				<stop  offset="0.5674" style="stop-color:#55B0FF"/>
				<stop  offset="0.8652" style="stop-color:#15A6FF"/>
				<stop  offset="0.9944" style="stop-color:#158CFF"/>
			</linearGradient>
			<path fill="url(#SVGID_2_)" d="M131.128-80.34c1.452,0,2.843,0.303,4.174,0.907c1.331,0.605,2.503,1.414,3.517,2.427
				c1.013,1.014,1.821,2.178,2.427,3.494c0.604,1.315,0.907,2.699,0.907,4.15c0,0.787-0.295,1.482-0.885,2.087
				c-0.59,0.605-1.323,0.893-2.2,0.862H127c0.998,1.422,2.374,2.133,4.128,2.133c0.483,0,0.892-0.046,1.226-0.137
				c0.332-0.091,0.627-0.196,0.884-0.317c0.257-0.12,0.515-0.227,0.771-0.317s0.552-0.137,0.885-0.137
				c0.636,0.031,1.187,0.212,1.656,0.545c0.469,0.333,0.816,0.748,1.043,1.247c0.228,0.5,0.303,1.037,0.228,1.611
				c-0.076,0.574-0.341,1.104-0.794,1.588c-0.817,0.665-1.725,1.127-2.723,1.384s-2.057,0.401-3.176,0.431
				c-1.451,0.061-2.843-0.204-4.174-0.794c-1.331-0.59-2.503-1.391-3.516-2.404c-1.014-1.014-1.815-2.2-2.404-3.562
				c-0.59-1.361-0.885-2.768-0.885-4.22c0-1.421,0.295-2.797,0.885-4.128c0.589-1.331,1.383-2.503,2.382-3.517
				c0.998-1.013,2.161-1.821,3.493-2.427C128.239-80.037,129.645-80.34,131.128-80.34z M135.257-72.355
				c-0.515-0.635-1.119-1.141-1.814-1.52c-0.696-0.378-1.468-0.567-2.314-0.567c-0.877,0-1.655,0.189-2.336,0.567
				c-0.681,0.379-1.278,0.885-1.792,1.52H135.257z"/>
			<linearGradient id="SVGID_3_" gradientUnits="userSpaceOnUse" x1="145.6313" y1="-87.6035" x2="145.6313" y2="-58.3734">
				<stop  offset="0" style="stop-color:#CCE0F4"/>
				<stop  offset="0.0851" style="stop-color:#C3DCF5"/>
				<stop  offset="0.2265" style="stop-color:#A9D2F7"/>
				<stop  offset="0.4057" style="stop-color:#80C1FB"/>
				<stop  offset="0.5674" style="stop-color:#55B0FF"/>
				<stop  offset="0.8652" style="stop-color:#15A6FF"/>
				<stop  offset="0.9944" style="stop-color:#158CFF"/>
			</linearGradient>
			<path fill="url(#SVGID_3_)" d="M154.855-80.34c1.452,0,2.843,0.303,4.174,0.907c1.331,0.605,2.503,1.414,3.517,2.427
				c1.013,1.014,1.821,2.178,2.427,3.494c0.604,1.315,0.907,2.699,0.907,4.15c0,0.787-0.295,1.482-0.885,2.087
				c-0.59,0.605-1.323,0.893-2.2,0.862h-12.067c0.998,1.422,2.374,2.133,4.128,2.133c0.483,0,0.892-0.046,1.226-0.137
				c0.332-0.091,0.627-0.196,0.884-0.317c0.257-0.12,0.515-0.227,0.771-0.317s0.552-0.137,0.885-0.137
				c0.636,0.031,1.187,0.212,1.656,0.545c0.469,0.333,0.816,0.748,1.043,1.247c0.228,0.5,0.303,1.037,0.228,1.611
				c-0.076,0.574-0.341,1.104-0.794,1.588c-0.817,0.665-1.725,1.127-2.723,1.384s-2.057,0.401-3.176,0.431
				c-1.451,0.061-2.843-0.204-4.174-0.794s-2.503-1.391-3.516-2.404c-1.014-1.014-1.815-2.2-2.404-3.562
				c-0.59-1.361-0.885-2.768-0.885-4.22c0-1.421,0.295-2.797,0.885-4.128c0.589-1.331,1.383-2.503,2.382-3.517
				c0.998-1.013,2.161-1.821,3.493-2.427C151.966-80.037,153.373-80.34,154.855-80.34z M158.984-72.355
				c-0.515-0.635-1.119-1.141-1.814-1.52c-0.696-0.378-1.468-0.567-2.314-0.567c-0.877,0-1.655,0.189-2.336,0.567
				c-0.681,0.379-1.278,0.885-1.792,1.52H158.984z"/>
			<linearGradient id="SVGID_4_" gradientUnits="userSpaceOnUse" x1="145.6313" y1="-87.6035" x2="145.6313" y2="-58.3734">
				<stop  offset="0" style="stop-color:#CCE0F4"/>
				<stop  offset="0.0851" style="stop-color:#C3DCF5"/>
				<stop  offset="0.2265" style="stop-color:#A9D2F7"/>
				<stop  offset="0.4057" style="stop-color:#80C1FB"/>
				<stop  offset="0.5674" style="stop-color:#55B0FF"/>
				<stop  offset="0.8652" style="stop-color:#15A6FF"/>
				<stop  offset="0.9944" style="stop-color:#158CFF"/>
			</linearGradient>
			<path fill="url(#SVGID_4_)" d="M188.659-69.041c0,2.938-1.043,5.449-3.127,7.533s-4.595,3.126-7.533,3.126
				c-2.938,0-5.455-1.042-7.554-3.126c-2.098-2.084-3.147-4.596-3.147-7.533s1.042-5.441,3.127-7.512
				c2.084-2.07,4.595-3.105,7.532-3.105h3.483v-3.609c0-0.979,0.35-1.818,1.05-2.518c0.698-0.699,1.538-1.05,2.518-1.05
				c0.979,0,1.832,0.351,2.56,1.05s1.092,1.539,1.092,2.518V-69.041z M181.482-72.524h-3.483c-0.979,0-1.818,0.343-2.518,1.028
				s-1.049,1.504-1.049,2.455s0.35,1.777,1.049,2.476c0.699,0.7,1.524,1.05,2.476,1.05s1.77-0.343,2.455-1.028
				s1.028-1.518,1.028-2.497L181.482-72.524z"/>
		</g>
	</g>
	<g>
		<g>
			<linearGradient id="SVGID_5_" gradientUnits="userSpaceOnUse" x1="49.3583" y1="-58.0654" x2="49.3583" y2="-88.3008">
				<stop  offset="0" style="stop-color:#CCE0F4"/>
				<stop  offset="0.0641" style="stop-color:#C3DCF2"/>
				<stop  offset="0.1706" style="stop-color:#A9D2EE"/>
				<stop  offset="0.3066" style="stop-color:#80C2E7"/>
				<stop  offset="0.4649" style="stop-color:#47ACDE"/>
				<stop  offset="0.5674" style="stop-color:#1E9CD7"/>
				<stop  offset="0.8652" style="stop-color:#0075BE"/>
				<stop  offset="0.9944" style="stop-color:#005B97"/>
			</linearGradient>
			<path fill="url(#SVGID_5_)" d="M18.437-79.462c-0.64,0-1.28-0.24-1.8-0.84c1.08-0.64,1.8-2.12,1.8-3.439
				c0-1.4-0.8-2.68-2.919-2.68c-2.2,0-3.72,1.279-3.72,3.479c0,6.279,8.999,6.639,8.999,15.558c0,5.639-4.159,9.278-10.598,9.278
				c-3.199,0-8.838-0.68-8.838-6.439c0-3.759,2.799-5.759,5.879-5.759c1.8,0,2.919,0.6,3.239,2.04
				c-3.239,0.279-4.679,1.64-4.679,4.399c0,2.679,2.08,3.839,3.959,3.839c3.16,0,4.399-2.76,4.399-5.719
				c0-7.519-8.639-9.159-8.639-15.118c0-4.199,4.759-7.438,9.519-7.438c2.12,0,6.719,0.32,6.719,4.8
				C21.756-81.222,20.516-79.462,18.437-79.462z"/>
			<linearGradient id="SVGID_6_" gradientUnits="userSpaceOnUse" x1="49.3583" y1="-58.0654" x2="49.3583" y2="-88.3008">
				<stop  offset="0" style="stop-color:#CCE0F4"/>
				<stop  offset="0.0641" style="stop-color:#C3DCF2"/>
				<stop  offset="0.1706" style="stop-color:#A9D2EE"/>
				<stop  offset="0.3066" style="stop-color:#80C2E7"/>
				<stop  offset="0.4649" style="stop-color:#47ACDE"/>
				<stop  offset="0.5674" style="stop-color:#1E9CD7"/>
				<stop  offset="0.8652" style="stop-color:#0075BE"/>
				<stop  offset="0.9944" style="stop-color:#005B97"/>
			</linearGradient>
			<path fill="url(#SVGID_6_)" d="M38.317-72.823c0.24,0.24,0.6,0.36,1.16,0.36c1.88,0,2.72-1.36,4.199-1.96l0.16,0.84
				c-1.24,1.56-3.319,2.88-5.639,3.52c-0.76,8.038-5.119,11.998-9.119,11.998c-4.279,0-6.119-1.8-6.119-6.56
				c0-9.838,4.999-14.077,10.518-14.077C37.277-78.702,38.237-75.743,38.317-72.823z M35.237-69.664c-1.16,0-1.68-0.84-1.68-1.8
				c0-1.159,0.68-2.399,1.76-2.799c-0.12-1.32-0.56-2.08-1.68-2.08c-3.76,0-5.359,8.159-5.359,11.358c0,2.399,1.12,3.039,2.68,3.039
				C33.398-61.945,34.758-65.784,35.237-69.664z"/>
			<linearGradient id="SVGID_7_" gradientUnits="userSpaceOnUse" x1="49.3583" y1="-58.0654" x2="49.3583" y2="-88.3008">
				<stop  offset="0" style="stop-color:#CCE0F4"/>
				<stop  offset="0.0641" style="stop-color:#C3DCF2"/>
				<stop  offset="0.1706" style="stop-color:#A9D2EE"/>
				<stop  offset="0.3066" style="stop-color:#80C2E7"/>
				<stop  offset="0.4649" style="stop-color:#47ACDE"/>
				<stop  offset="0.5674" style="stop-color:#1E9CD7"/>
				<stop  offset="0.8652" style="stop-color:#0075BE"/>
				<stop  offset="0.9944" style="stop-color:#005B97"/>
			</linearGradient>
			<path fill="url(#SVGID_7_)" d="M52.278-75.463c0-0.96-0.6-1.359-1.479-1.359c-3.359,0-5.519,6.519-5.519,10.838
				c0,2.359,0.479,4.279,2.919,4.279c2.839,0,5.119-1.68,6.958-3.76h1.36c-1.919,2.16-4.079,7.159-11.158,7.159
				c-3.319,0-5.479-1.84-5.479-6.559c0-5.839,2.52-13.558,10.278-13.558c2.16,0,4.399,0.56,4.399,2.759c0,0.44-0.04,0.8-0.2,1.32
				c-0.2-0.12-0.52-0.24-1-0.24c-0.36,0-0.76,0.08-1.28,0.24C52.197-74.783,52.278-75.143,52.278-75.463z"/>
			<linearGradient id="SVGID_8_" gradientUnits="userSpaceOnUse" x1="49.3583" y1="-58.0654" x2="49.3583" y2="-88.3008">
				<stop  offset="0" style="stop-color:#CCE0F4"/>
				<stop  offset="0.0641" style="stop-color:#C3DCF2"/>
				<stop  offset="0.1706" style="stop-color:#A9D2EE"/>
				<stop  offset="0.3066" style="stop-color:#80C2E7"/>
				<stop  offset="0.4649" style="stop-color:#47ACDE"/>
				<stop  offset="0.5674" style="stop-color:#1E9CD7"/>
				<stop  offset="0.8652" style="stop-color:#0075BE"/>
				<stop  offset="0.9944" style="stop-color:#005B97"/>
			</linearGradient>
			<path fill="url(#SVGID_8_)" d="M63.558-78.303l-2.88,13.599c-0.08,0.439-0.16,0.879-0.16,1.239c0,0.88,0.4,1.52,2,1.52
				c1.6,0,3.679-2.239,5.279-3.52h1.359c-1.839,1.84-6.359,7.159-9.478,7.159c-3.08,0-5-1.359-5-4.359c0-0.6,0.08-1.279,0.24-2.039
				l2.879-13.599H63.558z M61.718-86.781c1.76,0,3.199,1.44,3.199,3.2s-1.439,3.159-3.199,3.159s-3.16-1.399-3.16-3.159
				S59.958-86.781,61.718-86.781z"/>
			<linearGradient id="SVGID_9_" gradientUnits="userSpaceOnUse" x1="49.3583" y1="-58.0654" x2="49.3583" y2="-88.3008">
				<stop  offset="0" style="stop-color:#CCE0F4"/>
				<stop  offset="0.0641" style="stop-color:#C3DCF2"/>
				<stop  offset="0.1706" style="stop-color:#A9D2EE"/>
				<stop  offset="0.3066" style="stop-color:#80C2E7"/>
				<stop  offset="0.4649" style="stop-color:#47ACDE"/>
				<stop  offset="0.5674" style="stop-color:#1E9CD7"/>
				<stop  offset="0.8652" style="stop-color:#0075BE"/>
				<stop  offset="0.9944" style="stop-color:#005B97"/>
			</linearGradient>
			<path fill="url(#SVGID_9_)" d="M84.876-78.303l-2.879,13.599c-0.08,0.439-0.16,0.879-0.16,1.239c0,0.88,0.4,1.52,2,1.52
				s3.68-2.239,5.279-3.52h1.36c-1.84,1.84-6.359,7.159-9.479,7.159c-2.6,0-4.359-0.96-4.879-3.039c-1.2,1.64-3,3.279-5.439,3.279
				c-3.839,0-4.959-2.72-4.959-5.079c0-6.879,2.479-15.118,10.478-15.118c0.96,0,1.96,0.4,2.68,1l0.24-1.04H84.876z M71.118-64.225
				c0,2.399,1.32,2.84,2.32,2.84c0.919,0,1.799-0.88,2.56-2c0.04-0.4,0.12-0.84,0.24-1.319l2.24-10.599
				c-0.64-0.56-1.4-0.72-1.96-0.72C73.517-76.022,71.118-69.664,71.118-64.225z"/>
			<linearGradient id="SVGID_10_" gradientUnits="userSpaceOnUse" x1="49.3583" y1="-58.0654" x2="49.3583" y2="-88.3008">
				<stop  offset="0" style="stop-color:#CCE0F4"/>
				<stop  offset="0.0641" style="stop-color:#C3DCF2"/>
				<stop  offset="0.1706" style="stop-color:#A9D2EE"/>
				<stop  offset="0.3066" style="stop-color:#80C2E7"/>
				<stop  offset="0.4649" style="stop-color:#47ACDE"/>
				<stop  offset="0.5674" style="stop-color:#1E9CD7"/>
				<stop  offset="0.8652" style="stop-color:#0075BE"/>
				<stop  offset="0.9944" style="stop-color:#005B97"/>
			</linearGradient>
			<path fill="url(#SVGID_10_)" d="M92.758-64.704c-0.12,0.479-0.2,0.919-0.2,1.359c0,0.84,0.32,1.479,1.44,1.479
				c0.28,0,0.72,0,1.04-0.12c-1.12,3.439-2.799,3.68-4.159,3.68c-2.839,0-4.08-1.88-4.08-4.399c0-0.64,0.08-1.319,0.24-1.999
				l4.399-20.797l5.919-0.8L92.758-64.704z"/>
		</g>
		<rect x="0" y="-86.306" fill="none" width="110" height="33.871"/>
		
			<text transform="matrix(1 0 0 1 -8.727856e-05 -58.3057)" fill="none" stroke="#FFFFFF" stroke-width="4" stroke-miterlimit="10" font-family="'Lobster1.3'" font-size="40">Social</text>
	</g>
	<g>
		<g>
			<linearGradient id="SVGID_11_" gradientUnits="userSpaceOnUse" x1="49.3583" y1="-88.3008" x2="49.3583" y2="-58.0654">
				<stop  offset="0" style="stop-color:#E9005B"/>
				<stop  offset="0.0779" style="stop-color:#EB0963"/>
				<stop  offset="0.2074" style="stop-color:#F22377"/>
				<stop  offset="0.3716" style="stop-color:#FD4C99"/>
				<stop  offset="0.4042" style="stop-color:#FF55A0"/>
				<stop  offset="0.6396" style="stop-color:#FFAADB"/>
				<stop  offset="0.6532" style="stop-color:#E9005B"/>
				<stop  offset="1" style="stop-color:#E9005B"/>
			</linearGradient>
			<path fill="url(#SVGID_11_)" d="M18.437-79.462c-0.64,0-1.28-0.24-1.8-0.84c1.08-0.64,1.8-2.12,1.8-3.439
				c0-1.4-0.8-2.68-2.919-2.68c-2.2,0-3.72,1.279-3.72,3.479c0,6.279,8.999,6.639,8.999,15.558c0,5.639-4.159,9.278-10.598,9.278
				c-3.199,0-8.838-0.68-8.838-6.439c0-3.759,2.799-5.759,5.879-5.759c1.8,0,2.919,0.6,3.239,2.04
				c-3.239,0.279-4.679,1.64-4.679,4.399c0,2.679,2.08,3.839,3.959,3.839c3.16,0,4.399-2.76,4.399-5.719
				c0-7.519-8.639-9.159-8.639-15.118c0-4.199,4.759-7.438,9.519-7.438c2.12,0,6.719,0.32,6.719,4.8
				C21.756-81.222,20.516-79.462,18.437-79.462z"/>
			<linearGradient id="SVGID_12_" gradientUnits="userSpaceOnUse" x1="49.3583" y1="-88.3008" x2="49.3583" y2="-58.0654">
				<stop  offset="0" style="stop-color:#E9005B"/>
				<stop  offset="0.0779" style="stop-color:#EB0963"/>
				<stop  offset="0.2074" style="stop-color:#F22377"/>
				<stop  offset="0.3716" style="stop-color:#FD4C99"/>
				<stop  offset="0.4042" style="stop-color:#FF55A0"/>
				<stop  offset="0.6396" style="stop-color:#FFAADB"/>
				<stop  offset="0.6532" style="stop-color:#E9005B"/>
				<stop  offset="1" style="stop-color:#E9005B"/>
			</linearGradient>
			<path fill="url(#SVGID_12_)" d="M38.317-72.823c0.24,0.24,0.6,0.36,1.16,0.36c1.88,0,2.72-1.36,4.199-1.96l0.16,0.84
				c-1.24,1.56-3.319,2.88-5.639,3.52c-0.76,8.038-5.119,11.998-9.119,11.998c-4.279,0-6.119-1.8-6.119-6.56
				c0-9.838,4.999-14.077,10.518-14.077C37.277-78.702,38.237-75.743,38.317-72.823z M35.237-69.664c-1.16,0-1.68-0.84-1.68-1.8
				c0-1.159,0.68-2.399,1.76-2.799c-0.12-1.32-0.56-2.08-1.68-2.08c-3.76,0-5.359,8.159-5.359,11.358c0,2.399,1.12,3.039,2.68,3.039
				C33.398-61.945,34.758-65.784,35.237-69.664z"/>
			<linearGradient id="SVGID_13_" gradientUnits="userSpaceOnUse" x1="49.3583" y1="-88.3008" x2="49.3583" y2="-58.0654">
				<stop  offset="0" style="stop-color:#E9005B"/>
				<stop  offset="0.0779" style="stop-color:#EB0963"/>
				<stop  offset="0.2074" style="stop-color:#F22377"/>
				<stop  offset="0.3716" style="stop-color:#FD4C99"/>
				<stop  offset="0.4042" style="stop-color:#FF55A0"/>
				<stop  offset="0.6396" style="stop-color:#FFAADB"/>
				<stop  offset="0.6532" style="stop-color:#E9005B"/>
				<stop  offset="1" style="stop-color:#E9005B"/>
			</linearGradient>
			<path fill="url(#SVGID_13_)" d="M52.278-75.463c0-0.96-0.6-1.359-1.479-1.359c-3.359,0-5.519,6.519-5.519,10.838
				c0,2.359,0.479,4.279,2.919,4.279c2.839,0,5.119-1.68,6.958-3.76h1.36c-1.919,2.16-4.079,7.159-11.158,7.159
				c-3.319,0-5.479-1.84-5.479-6.559c0-5.839,2.52-13.558,10.278-13.558c2.16,0,4.399,0.56,4.399,2.759c0,0.44-0.04,0.8-0.2,1.32
				c-0.2-0.12-0.52-0.24-1-0.24c-0.36,0-0.76,0.08-1.28,0.24C52.197-74.783,52.278-75.143,52.278-75.463z"/>
			<linearGradient id="SVGID_14_" gradientUnits="userSpaceOnUse" x1="49.3583" y1="-88.3008" x2="49.3583" y2="-58.0654">
				<stop  offset="0" style="stop-color:#E9005B"/>
				<stop  offset="0.0779" style="stop-color:#EB0963"/>
				<stop  offset="0.2074" style="stop-color:#F22377"/>
				<stop  offset="0.3716" style="stop-color:#FD4C99"/>
				<stop  offset="0.4042" style="stop-color:#FF55A0"/>
				<stop  offset="0.6396" style="stop-color:#FFAADB"/>
				<stop  offset="0.6532" style="stop-color:#E9005B"/>
				<stop  offset="1" style="stop-color:#E9005B"/>
			</linearGradient>
			<path fill="url(#SVGID_14_)" d="M63.558-78.303l-2.88,13.599c-0.08,0.439-0.16,0.879-0.16,1.239c0,0.88,0.4,1.52,2,1.52
				c1.6,0,3.679-2.239,5.279-3.52h1.359c-1.839,1.84-6.359,7.159-9.478,7.159c-3.08,0-5-1.359-5-4.359c0-0.6,0.08-1.279,0.24-2.039
				l2.879-13.599H63.558z M61.718-86.781c1.76,0,3.199,1.44,3.199,3.2s-1.439,3.159-3.199,3.159s-3.16-1.399-3.16-3.159
				S59.958-86.781,61.718-86.781z"/>
			<linearGradient id="SVGID_15_" gradientUnits="userSpaceOnUse" x1="49.3583" y1="-88.3008" x2="49.3583" y2="-58.0654">
				<stop  offset="0" style="stop-color:#E9005B"/>
				<stop  offset="0.0779" style="stop-color:#EB0963"/>
				<stop  offset="0.2074" style="stop-color:#F22377"/>
				<stop  offset="0.3716" style="stop-color:#FD4C99"/>
				<stop  offset="0.4042" style="stop-color:#FF55A0"/>
				<stop  offset="0.6396" style="stop-color:#FFAADB"/>
				<stop  offset="0.6532" style="stop-color:#E9005B"/>
				<stop  offset="1" style="stop-color:#E9005B"/>
			</linearGradient>
			<path fill="url(#SVGID_15_)" d="M84.876-78.303l-2.879,13.599c-0.08,0.439-0.16,0.879-0.16,1.239c0,0.88,0.4,1.52,2,1.52
				s3.68-2.239,5.279-3.52h1.36c-1.84,1.84-6.359,7.159-9.479,7.159c-2.6,0-4.359-0.96-4.879-3.039c-1.2,1.64-3,3.279-5.439,3.279
				c-3.839,0-4.959-2.72-4.959-5.079c0-6.879,2.479-15.118,10.478-15.118c0.96,0,1.96,0.4,2.68,1l0.24-1.04H84.876z M71.118-64.225
				c0,2.399,1.32,2.84,2.32,2.84c0.919,0,1.799-0.88,2.56-2c0.04-0.4,0.12-0.84,0.24-1.319l2.24-10.599
				c-0.64-0.56-1.4-0.72-1.96-0.72C73.517-76.022,71.118-69.664,71.118-64.225z"/>
			<linearGradient id="SVGID_16_" gradientUnits="userSpaceOnUse" x1="49.3583" y1="-88.3008" x2="49.3583" y2="-58.0654">
				<stop  offset="0" style="stop-color:#E9005B"/>
				<stop  offset="0.0779" style="stop-color:#EB0963"/>
				<stop  offset="0.2074" style="stop-color:#F22377"/>
				<stop  offset="0.3716" style="stop-color:#FD4C99"/>
				<stop  offset="0.4042" style="stop-color:#FF55A0"/>
				<stop  offset="0.6396" style="stop-color:#FFAADB"/>
				<stop  offset="0.6532" style="stop-color:#E9005B"/>
				<stop  offset="1" style="stop-color:#E9005B"/>
			</linearGradient>
			<path fill="url(#SVGID_16_)" d="M92.758-64.704c-0.12,0.479-0.2,0.919-0.2,1.359c0,0.84,0.32,1.479,1.44,1.479
				c0.28,0,0.72,0,1.04-0.12c-1.12,3.439-2.799,3.68-4.159,3.68c-2.839,0-4.08-1.88-4.08-4.399c0-0.64,0.08-1.319,0.24-1.999
				l4.399-20.797l5.919-0.8L92.758-64.704z"/>
		</g>
	</g>
</g>
<text transform="matrix(1 0 0 1 1.7087 28.3154)" fill="#333333" font-family="'Gotham-Medium'" font-size="33.1775">Socialproof</text>
</svg>
