<?xml version="1.0" encoding="utf-8"?>
<!-- Generator: Adobe Illustrator 17.0.0, SVG Export Plug-In . SVG Version: 6.00 Build 0)  -->
<!DOCTYPE svg PUBLIC "-//W3C//DTD SVG 1.1//EN" "http://www.w3.org/Graphics/SVG/1.1/DTD/svg11.dtd">
<svg version="1.1" id="Layer_1" xmlns="http://www.w3.org/2000/svg" xmlns:xlink="http://www.w3.org/1999/xlink" x="0px" y="0px"
	 width="617px" height="72px" viewBox="0 0 617 72" enable-background="new 0 0 617 72" xml:space="preserve">
<g>
	<defs>
		<rect id="SVGID_1_" x="220.38" y="8.609" width="225.663" height="52.538"/>
	</defs>
	<clipPath id="SVGID_2_">
		<use xlink:href="#SVGID_1_"  overflow="visible"/>
	</clipPath>
	<g clip-path="url(#SVGID_2_)">
		<defs>
			<rect id="SVGID_3_" x="220.38" y="8.424" width="226" height="52.746"/>
		</defs>
		<clipPath id="SVGID_4_">
			<use xlink:href="#SVGID_3_"  overflow="visible"/>
		</clipPath>
		<path clip-path="url(#SVGID_4_)" fill="#FFFFFF" d="M442.932,24.56c-1.912-1.91-4.345-2.921-7.035-2.921h-7.176
			c-5.397,0-10.073,1.941-13.9,5.768c-0.514,0.514-0.986,1.044-1.432,1.588c-3.322-4.083-8.895-7.342-17.372-7.342
			c-6.404,0-11.517,1.868-15.217,5.532c-0.075-0.079-0.141-0.161-0.218-0.238c-1.99-1.981-4.518-3.027-7.311-3.027
			c0,0-2.419,0-4.835,0c0-2.369,0-4.744,0-4.744c0-2.786-1.042-5.308-3.014-7.291c-1.983-1.994-4.505-3.048-7.294-3.048
			c-2.808,0-5.338,1.03-7.317,2.978l-0.007,0.008c-1.992,1.97-3.044,4.513-3.044,7.358l0.015-0.395
			c-0.078,0.998-0.206,2.9-0.275,5.343c-0.678-0.136-1.379-0.208-2.097-0.208c0,0-2.419,0-4.835,0c0-2.369,0-4.744,0-4.744
			c0-2.789-1.043-5.312-3.016-7.294c-1.981-1.992-4.502-3.045-7.292-3.045c-2.639,0-5.025,0.919-6.945,2.645
			c-1.923-1.754-4.303-2.689-6.924-2.689c-2.793,0-5.319,1.049-7.306,3.034l-0.004,0.004c-1.982,1.985-3.03,4.51-3.03,7.301
			c0,0.98,0.137,1.925,0.391,2.827c-1.048-0.368-2.161-0.568-3.327-0.568c-2.703,0-5.146,1.016-7.065,2.94
			c-1.39,1.392-2.288,3.064-2.687,4.904c-0.4-1.844-1.302-3.519-2.698-4.911c-1.919-1.918-4.364-2.933-7.067-2.933
			c-2.757,0-5.234,1.035-7.161,2.994c-1.368,1.397-2.249,3.056-2.65,4.866c-0.397-1.89-1.315-3.59-2.735-4.986
			c-1.913-1.881-4.345-2.875-7.032-2.875c-1.718,0-3.328,0.41-4.768,1.195c-0.065-0.068-0.122-0.14-0.189-0.206
			c-1.986-1.978-4.516-3.026-7.311-3.026c0,0-5.894,0-10.512,0c0-0.012,0-0.178,0-0.178c0-2.789-1.044-5.312-3.02-7.296
			c-1.97-1.988-4.493-3.043-7.288-3.043c-2.812,0-5.343,1.031-7.32,2.981l-0.003,0.003c-1.993,1.969-3.046,4.513-3.046,7.359v20.99
			c0,5.71,2.052,10.658,6.101,14.706c4.047,4.048,8.995,6.1,14.705,6.1h10.403c2.793,0,5.319-1.048,7.305-3.033
			c0.621-0.62,1.138-1.297,1.573-2.014c3.692,3.335,8.108,5.047,13.16,5.047c3.556,0,6.808-0.907,9.741-2.626
			c2.956,1.72,6.22,2.626,9.776,2.626c5.363,0,10.015-1.912,13.838-5.668c0.486,0.949,1.121,1.833,1.913,2.628
			c1.993,1.992,4.519,3.041,7.312,3.041c2.793,0,5.318-1.049,7.303-3.035c0.948-0.946,1.674-2.021,2.184-3.185
			c3.723,4.069,8.845,6.221,14.819,6.221h4.722c2.796,0,5.323-1.049,7.307-3.035c0.728-0.726,1.327-1.526,1.798-2.385
			c3.644,3.548,8.471,5.419,14.041,5.419h4.723c2.793,0,5.32-1.048,7.306-3.033c0.623-0.623,1.143-1.303,1.578-2.023
			c3.765,3.256,8.504,5.04,13.514,5.054c7.871,0.195,12.613-1.981,15.326-4.053c0.293,0.392,0.606,0.772,0.962,1.129
			c1.911,1.913,4.345,2.925,7.038,2.925c2.694,0,5.128-1.013,7.04-2.929c1.907-1.909,2.917-4.343,2.917-7.035c0,0,0-8.975,0-9.458
			c0.534,0,6.926-0.001,6.926-0.001c2.688,0,5.12-1.008,7.034-2.917c1.918-1.915,2.931-4.348,2.931-7.04
			C445.86,28.905,444.847,26.473,442.932,24.56 M405.244,40.225c-0.041,0.007-0.085,0.004-0.127,0.011l0.22-0.036
			C405.303,40.205,405.278,40.219,405.244,40.225z M395.746,60.976c-0.02,0-0.04-0.001-0.06-0.001c-0.026-0.001-0.049,0.001-0.076,0
			L395.746,60.976z"/>
		<path clip-path="url(#SVGID_4_)" fill="none" stroke="#DEDEDD" d="M442.932,24.56c-1.912-1.91-4.345-2.921-7.035-2.921h-7.176
			c-5.397,0-10.073,1.941-13.9,5.768c-0.514,0.514-0.986,1.044-1.432,1.588c-3.322-4.083-8.895-7.342-17.372-7.342
			c-6.404,0-11.517,1.868-15.217,5.532c-0.075-0.079-0.141-0.161-0.218-0.238c-1.99-1.981-4.518-3.027-7.311-3.027
			c0,0-2.419,0-4.835,0c0-2.369,0-4.744,0-4.744c0-2.786-1.042-5.308-3.014-7.291c-1.983-1.994-4.505-3.048-7.294-3.048
			c-2.808,0-5.338,1.03-7.317,2.978l-0.007,0.008c-1.992,1.97-3.044,4.513-3.044,7.358l0.015-0.395
			c-0.078,0.998-0.206,2.9-0.275,5.343c-0.678-0.136-1.379-0.208-2.097-0.208c0,0-2.419,0-4.835,0c0-2.369,0-4.744,0-4.744
			c0-2.789-1.043-5.312-3.016-7.294c-1.981-1.992-4.502-3.045-7.292-3.045c-2.639,0-5.025,0.919-6.945,2.645
			c-1.923-1.754-4.303-2.689-6.924-2.689c-2.793,0-5.319,1.049-7.306,3.034l-0.004,0.004c-1.982,1.985-3.03,4.51-3.03,7.301
			c0,0.98,0.137,1.925,0.391,2.827c-1.048-0.368-2.161-0.568-3.327-0.568c-2.703,0-5.146,1.016-7.065,2.94
			c-1.39,1.392-2.288,3.064-2.687,4.904c-0.4-1.844-1.302-3.519-2.698-4.911c-1.919-1.918-4.364-2.933-7.067-2.933
			c-2.757,0-5.234,1.035-7.161,2.994c-1.368,1.397-2.249,3.056-2.65,4.866c-0.397-1.89-1.315-3.59-2.735-4.986
			c-1.913-1.881-4.345-2.875-7.032-2.875c-1.718,0-3.328,0.41-4.768,1.195c-0.065-0.068-0.122-0.14-0.189-0.206
			c-1.986-1.978-4.516-3.026-7.311-3.026c0,0-5.894,0-10.512,0c0-0.012,0-0.178,0-0.178c0-2.789-1.044-5.312-3.02-7.296
			c-1.97-1.988-4.493-3.043-7.288-3.043c-2.812,0-5.343,1.031-7.32,2.981l-0.003,0.003c-1.993,1.969-3.046,4.513-3.046,7.359v20.99
			c0,5.71,2.052,10.658,6.101,14.706c4.047,4.048,8.995,6.1,14.705,6.1h10.403c2.793,0,5.319-1.048,7.305-3.033
			c0.621-0.62,1.138-1.297,1.573-2.014c3.692,3.335,8.108,5.047,13.16,5.047c3.556,0,6.808-0.907,9.741-2.626
			c2.956,1.72,6.22,2.626,9.776,2.626c5.363,0,10.015-1.912,13.838-5.668c0.486,0.949,1.121,1.833,1.913,2.628
			c1.993,1.992,4.519,3.041,7.312,3.041c2.793,0,5.318-1.049,7.303-3.035c0.948-0.946,1.674-2.021,2.184-3.185
			c3.723,4.069,8.845,6.221,14.819,6.221h4.722c2.796,0,5.323-1.049,7.307-3.035c0.728-0.726,1.327-1.526,1.798-2.385
			c3.644,3.548,8.471,5.419,14.041,5.419h4.723c2.793,0,5.32-1.048,7.306-3.033c0.623-0.623,1.143-1.303,1.578-2.023
			c3.765,3.256,8.504,5.04,13.514,5.054c7.871,0.195,12.613-1.981,15.326-4.053c0.293,0.392,0.606,0.772,0.962,1.129
			c1.911,1.913,4.345,2.925,7.038,2.925c2.694,0,5.128-1.013,7.04-2.929c1.907-1.909,2.917-4.343,2.917-7.035c0,0,0-8.975,0-9.458
			c0.534,0,6.926-0.001,6.926-0.001c2.688,0,5.12-1.008,7.034-2.917c1.918-1.915,2.931-4.348,2.931-7.04
			C445.86,28.905,444.847,26.473,442.932,24.56z M405.244,40.225c-0.041,0.007-0.085,0.004-0.127,0.011l0.22-0.036
			C405.303,40.205,405.278,40.219,405.244,40.225z M395.746,60.976c-0.02,0-0.04-0.001-0.06-0.001c-0.026-0.001-0.049,0.001-0.076,0
			L395.746,60.976z"/>
	</g>
</g>
<g>
	<defs>
		<rect id="SVGID_5_" x="220.38" y="8.424" width="226" height="52.746"/>
	</defs>
	<clipPath id="SVGID_6_">
		<use xlink:href="#SVGID_5_"  overflow="visible"/>
	</clipPath>
	<path clip-path="url(#SVGID_6_)" fill="#4AC8F5" d="M257.034,50.637c0,1.444-0.516,2.683-1.548,3.712
		c-1.032,1.031-2.269,1.546-3.714,1.546h-10.403c-4.334,0-8.037-1.537-11.113-4.613c-3.076-3.076-4.612-6.779-4.612-11.113V19.18
		c0-1.486,0.512-2.733,1.536-3.746c1.025-1.011,2.275-1.517,3.753-1.517c1.434,0,2.666,0.516,3.689,1.548
		c1.026,1.03,1.54,2.266,1.54,3.711v5.258h15.592c1.45,0,2.693,0.516,3.729,1.548c1.036,1.03,1.552,2.267,1.552,3.712
		c0,1.442-0.516,2.68-1.548,3.711c-1.032,1.03-2.272,1.546-3.716,1.546h-15.609v5.213c0,1.449,0.504,2.679,1.517,3.694
		c1.012,1.012,2.241,1.519,3.686,1.519h10.406c1.444,0,2.684,0.517,3.716,1.548C256.518,47.957,257.034,49.194,257.034,50.637"/>
	<path clip-path="url(#SVGID_6_)" fill="#4AC8F5" d="M308.034,41.182c0,4.055-1.437,7.522-4.314,10.398
		c-2.876,2.877-6.34,4.315-10.393,4.315c-3.707,0-6.969-1.254-9.788-3.763c-2.779,2.509-6.023,3.763-9.729,3.763
		c-4.052,0-7.518-1.438-10.395-4.315c-2.875-2.876-4.313-6.343-4.313-10.398v-9.789c0-1.391,0.481-2.557,1.448-3.504
		c0.962-0.947,2.121-1.42,3.47-1.42c1.352,0,2.509,0.473,3.472,1.42c0.964,0.947,1.446,2.116,1.446,3.506v9.795
		c0,1.355,0.474,2.502,1.418,3.45c0.947,0.946,2.097,1.418,3.447,1.418c1.313,0,2.442-0.471,3.388-1.418
		c0.946-0.948,1.418-2.095,1.418-3.45v-9.737c0-1.352,0.485-2.519,1.45-3.506c0.968-0.984,2.148-1.478,3.54-1.478
		c1.352,0,2.512,0.483,3.479,1.45c0.967,0.965,1.451,2.126,1.451,3.476v9.795c0,1.355,0.473,2.502,1.419,3.45
		c0.944,0.946,2.076,1.418,3.387,1.418c1.352,0,2.501-0.471,3.446-1.418c0.947-0.948,1.419-2.095,1.419-3.45v-9.795
		c0-1.351,0.483-2.511,1.447-3.476c0.964-0.967,2.122-1.45,3.47-1.45c1.351,0,2.509,0.483,3.472,1.448
		c0.964,0.966,1.446,2.123,1.446,3.475V41.182"/>
	<path clip-path="url(#SVGID_6_)" fill="#4AC8F5" d="M321.648,19.132c0,1.442-0.514,2.681-1.546,3.711
		c-1.031,1.03-2.268,1.547-3.711,1.547c-1.445,0-2.682-0.517-3.714-1.547c-1.029-1.03-1.545-2.269-1.545-3.711
		c0-1.444,0.516-2.681,1.545-3.712c1.033-1.032,2.269-1.547,3.714-1.547c1.442,0,2.679,0.515,3.711,1.547
		C321.134,16.451,321.648,17.688,321.648,19.132 M321.648,50.632c0,1.445-0.514,2.685-1.546,3.716
		c-1.031,1.032-2.268,1.548-3.711,1.548c-1.445,0-2.682-0.515-3.714-1.548c-1.029-1.031-1.545-2.271-1.545-3.716V33.545
		c0-1.445,0.516-2.685,1.545-3.716c1.033-1.032,2.269-1.548,3.714-1.548c1.442,0,2.679,0.516,3.711,1.548
		c1.032,1.031,1.546,2.271,1.546,3.716V50.632z"/>
	<path clip-path="url(#SVGID_6_)" fill="#4AC8F5" d="M350.683,50.637c0,1.444-0.516,2.683-1.548,3.712
		c-1.031,1.031-2.27,1.546-3.716,1.546h-4.722c-4.333,0-8.189-1.391-11.113-4.613c-6.556-7.225-4.613-32.103-4.613-32.103
		c0-1.486,0.513-2.733,1.537-3.746c1.025-1.011,2.277-1.517,3.752-1.517c1.436,0,2.664,0.516,3.691,1.548
		c1.025,1.03,1.537,2.266,1.537,3.711V29h9.916c1.447,0,2.69,0.516,3.728,1.548c1.033,1.029,1.552,2.267,1.552,3.71
		c0,1.443-0.516,2.682-1.55,3.712c-1.031,1.03-2.27,1.546-3.716,1.546h-9.363c0,0-0.06,3.327,0.952,4.342
		c1.012,1.012,2.241,1.519,3.686,1.519h4.725c1.446,0,2.685,0.517,3.716,1.548C350.167,47.957,350.683,49.194,350.683,50.637"/>
	<path clip-path="url(#SVGID_6_)" fill="#4AC8F5" d="M378.552,50.637c0,1.444-0.518,2.683-1.549,3.712
		c-1.033,1.031-2.271,1.546-3.715,1.546h-4.723c-4.333,0-8.191-1.391-11.113-4.613c-6.556-7.225-4.613-32.103-4.613-32.103
		c0-1.486,0.512-2.733,1.537-3.746c1.026-1.011,2.277-1.517,3.752-1.517c1.435,0,2.665,0.516,3.691,1.548
		c1.023,1.03,1.537,2.266,1.537,3.711V29h9.916c1.447,0,2.69,0.516,3.727,1.548c1.035,1.029,1.554,2.267,1.554,3.71
		c0,1.443-0.518,2.682-1.551,3.712c-1.032,1.03-2.271,1.546-3.716,1.546h-9.363c0,0-0.061,3.327,0.952,4.342
		c1.013,1.012,2.242,1.519,3.686,1.519h4.726c1.445,0,2.684,0.517,3.716,1.548C378.035,47.957,378.552,49.194,378.552,50.637"/>
	<path clip-path="url(#SVGID_6_)" fill="#4AC8F5" d="M440.779,31.596c0,1.337-0.479,2.486-1.438,3.442
		c-0.957,0.955-2.106,1.434-3.446,1.434h-7.181c-1.341,0-2.48,0.47-3.419,1.408c-0.94,0.938-1.407,2.077-1.407,3.419v9.711
		c0,1.34-0.477,2.491-1.434,3.448c-0.957,0.959-2.104,1.437-3.443,1.437c-1.337,0-2.486-0.477-3.442-1.435
		c-0.957-0.957-1.434-2.104-1.434-3.446v-9.706c0-4.02,1.425-7.457,4.276-10.31c2.852-2.852,6.288-4.279,10.308-4.279h7.176
		c1.34,0,2.488,0.479,3.446,1.435C440.3,29.111,440.779,30.258,440.779,31.596"/>
	<path clip-path="url(#SVGID_6_)" fill="#4AC8F5" d="M406.039,45.231c-2.349,0.329-4.175,2.457-8.161,2.426
		c-7.248-0.31-6.686-3.568-6.686-3.568h15.943c3.58,0,5.153-1.193,5.153-4.556c0-4.23-3.797-12.799-16.271-12.799
		c-15.942,0-15.642,13.786-15.642,13.786c0,4.335,1.181,7.687,4.256,10.763c3.077,3.076,6.977,4.613,11.115,4.613
		c11.372,0.303,15.331-5.02,14.865-8.006C410.097,45.372,407.625,44.939,406.039,45.231 M396.559,34.158c0,0,5.207,0,5.207,3.364
		h-10.468C391.299,34.158,396.559,34.158,396.559,34.158z"/>
</g>
<rect x="465.38" y="19.669" fill="none" width="139" height="57"/>
<text transform="matrix(1 0 0 1 465.3803 56.1693)" fill="#FFFFFF" font-family="'Gotham-Bold'" font-size="50">feed</text>
<rect x="12.62" y="19.669" fill="none" width="222.75" height="57"/>
<text transform="matrix(1 0 0 1 12.6197 56.1693)" fill="#FFFFFF" font-family="'Gotham-Bold'" font-size="50">engage</text>
</svg>
